<svg viewBox="0 0 15 15" xmlns="http://www.w3.org/2000/svg" xmlns:xlink="http://www.w3.org/1999/xlink" width="15.000000" height="15.000000" fill="none" customFrame="#000000">
	<path id="Icon" d="M6 1.5C6 0.671573 5.32843 0 4.5 0C3.67157 0 3 0.671573 3 1.5C1.34315 1.5 0 2.84315 0 4.5L15 4.5C15 2.84315 13.6569 1.5 12 1.5C12 0.671573 11.3284 0 10.5 0C9.67157 0 9 0.671573 9 1.5L6 1.5ZM15 6L0 6L0 10.2C0 11.8802 0 12.7202 0.32698 13.362C0.614601 13.9265 1.07354 14.3854 1.63803 14.673C2.27976 15 3.11984 15 4.8 15L10.2 15C11.8802 15 12.7202 15 13.362 14.673C13.9265 14.3854 14.3854 13.9265 14.673 13.362C15 12.7202 15 11.8802 15 10.2L15 6ZM9.08175 9.40951C9 9.56994 9 9.77996 9 10.2L9 10.8C9 11.22 9 11.4301 9.08175 11.5905C9.15365 11.7316 9.26838 11.8463 9.40951 11.9183C9.56994 12 9.77996 12 10.2 12L10.8 12C11.22 12 11.4301 12 11.5905 11.9183C11.7316 11.8463 11.8463 11.7316 11.9183 11.5905C12 11.4301 12 11.22 12 10.8L12 10.2C12 9.77996 12 9.56994 11.9183 9.40951C11.8463 9.26838 11.7316 9.15365 11.5905 9.08175C11.4301 9 11.22 9 10.8 9L10.2 9C9.77996 9 9.56994 9 9.40951 9.08175C9.26838 9.15365 9.15365 9.26838 9.08175 9.40951Z" fill="rgb(31.875,31.875,31.875)" fill-rule="evenodd" />
</svg>
