<svg viewBox="0 0 50 50" xmlns="http://www.w3.org/2000/svg" xmlns:xlink="http://www.w3.org/1999/xlink" width="50.000000" height="50.000000" fill="none">
	<rect id="Profile" width="50.000000" height="50.000000" x="0.000000" y="0.000000" />
	<path id="Icon" d="M45.8332 25.0001C45.8332 36.506 36.5058 45.8334 24.9998 45.8334C13.4939 45.8334 4.1665 36.506 4.1665 25.0001C4.1665 13.4941 13.4939 4.16675 24.9998 4.16675C36.5058 4.16675 45.8332 13.4941 45.8332 25.0001ZM37.4998 32.4406C37.4998 35.8923 31.9034 39.5834 24.9998 39.5834C18.0963 39.5834 12.4998 35.8923 12.4998 32.4406C12.4998 28.9888 18.0963 27.0834 24.9998 27.0834C31.9034 27.0834 37.4998 28.9888 37.4998 32.4406ZM24.9998 22.9167C28.4516 22.9167 31.2498 20.1185 31.2498 16.6667C31.2498 13.215 28.4516 10.4167 24.9998 10.4167C21.5481 10.4167 18.7498 13.215 18.7498 16.6667C18.7498 20.1185 21.5481 22.9167 24.9998 22.9167Z" fill="rgb(217,217,217)" fill-rule="evenodd" />
</svg>
